<svg width="43" height="29" viewBox="0 0 43 29" fill="none" xmlns="http://www.w3.org/2000/svg">
<path d="M35.5194 28.6297C34.6749 28.6297 33.8468 28.4871 33.0352 28.2019C32.2345 27.9168 31.5052 27.4945 30.8471 26.9351L33.4136 23.8422C33.6549 24.0396 33.951 24.2206 34.302 24.3851C34.653 24.5387 35.0588 24.6154 35.5194 24.6154C36.1226 24.6154 36.671 24.4619 37.1646 24.1548C37.6581 23.8367 38.053 23.4254 38.3491 22.9209C38.6562 22.4054 38.8098 21.8461 38.8098 21.2428V5.16943H42.824V21.2428C42.824 22.5919 42.495 23.8258 41.8369 24.9445C41.1788 26.0522 40.2959 26.9461 39.1882 27.6261C38.0804 28.2952 36.8575 28.6297 35.5194 28.6297Z" fill="#262626"/>
<path d="M25.7471 27.0009C24.1896 27.0009 22.7254 26.6938 21.3544 26.0796C19.9834 25.4545 18.777 24.5935 17.735 23.4967C16.6931 22.3999 15.876 21.1331 15.2837 19.6963C14.6915 18.2486 14.3953 16.7021 14.3953 15.0569C14.3953 13.4118 14.6915 11.8708 15.2837 10.434C15.876 8.98623 16.6931 7.71396 17.735 6.61718C18.777 5.52039 19.9834 4.6649 21.3544 4.0507C22.7254 3.42553 24.1896 3.11295 25.7471 3.11295C27.3155 3.11295 28.7852 3.42553 30.1561 4.0507C31.5271 4.6649 32.7336 5.52039 33.7755 6.61718C34.8175 7.71396 35.6291 8.98623 36.2104 10.434C36.8027 11.8708 37.0988 13.4118 37.0988 15.0569C37.0988 16.7021 36.8027 18.2486 36.2104 19.6963C35.6291 21.1331 34.8175 22.3999 33.7755 23.4967C32.7336 24.5935 31.5271 25.4545 30.1561 26.0796C28.7852 26.6938 27.3155 27.0009 25.7471 27.0009ZM25.7471 22.9867C26.7561 22.9867 27.7048 22.7783 28.5932 22.3615C29.4816 21.9448 30.2603 21.3744 30.9294 20.6506C31.6094 19.9157 32.1358 19.0712 32.5087 18.117C32.8926 17.1628 33.0846 16.1428 33.0846 15.0569C33.0846 13.9711 32.8926 12.9511 32.5087 11.9969C32.1249 11.0317 31.5929 10.1872 30.9129 9.46334C30.2439 8.73946 29.4652 8.16913 28.5768 7.75235C27.6993 7.33557 26.7561 7.12718 25.7471 7.12718C24.738 7.12718 23.7893 7.33557 22.9009 7.75235C22.0125 8.16913 21.2283 8.74494 20.5483 9.47979C19.8793 10.2037 19.3528 11.0427 18.9689 11.9969C18.596 12.9511 18.4096 13.9711 18.4096 15.0569C18.4096 16.1537 18.6015 17.1792 18.9854 18.1334C19.3692 19.0876 19.8957 19.9322 20.5647 20.667C21.2448 21.3909 22.0235 21.9612 22.9009 22.378C23.7893 22.7838 24.738 22.9867 25.7471 22.9867Z" fill="#262626"/>
<path d="M0 26.1454V3.11295H26.7342V7.12718H4.01424V11.7995H12.0263V15.8137H4.01424V26.1454H0Z" fill="#262626"/>
<path d="M33 0H40.1977V4.11295H33V0Z" fill="#262626"/>
</svg>
